<svg width="24" height="24" viewBox="0 0 24 24" fill="none" xmlns="http://www.w3.org/2000/svg">
<path d="M11.0654 1.31988C12.4126 1.33935 13.6753 1.85872 14.7108 2.89421C14.8633 3.04678 14.9964 3.08248 15.2009 3.05327C18.1711 2.63453 20.7776 4.51075 21.323 7.46141C21.4658 8.23722 21.4204 9.00978 21.1996 9.76611C21.1444 9.95113 21.1801 10.068 21.3002 10.2141C23.7575 13.2296 22.287 17.7904 18.5314 18.7836C18.3171 18.8388 18.223 18.9362 18.1483 19.131C16.7525 22.7601 12.0652 23.7371 9.33205 20.9682C9.19571 20.8319 9.07886 20.8027 8.89383 20.8287C5.88149 21.2539 3.27166 19.3744 2.73282 16.3913C2.59324 15.6252 2.64518 14.8624 2.86591 14.1158C2.92109 13.9308 2.88538 13.8139 2.76853 13.6679C0.301526 10.649 1.79796 6.05587 5.56662 5.08855C5.7549 5.03985 5.84254 4.9587 5.91071 4.78342C6.72222 2.6605 8.69257 1.31014 11.0654 1.31988ZM14.331 14.3917C12.6268 15.3753 10.9778 16.3199 9.34179 17.2807C8.97174 17.4982 8.65687 17.4917 8.28682 17.2742C7.00463 16.5147 5.7127 15.7778 4.42077 15.0377C4.32663 14.9858 4.24873 14.8786 4.09941 14.9241C3.92412 16.5017 4.41752 17.8163 5.7127 18.7479C7.01761 19.686 8.45237 19.8029 9.87414 19.0498C11.3284 18.2805 12.7339 17.4171 14.1589 16.5926C14.2401 16.5471 14.331 16.5114 14.331 16.3913V14.3917ZM13.4221 3.65054C13.3896 3.53693 13.3052 3.50447 13.2403 3.45903C11.9419 2.57935 10.5591 2.43977 9.15676 3.13117C7.74148 3.83232 6.9884 5.03012 6.9462 6.61094C6.904 8.21774 6.93971 9.82454 6.92997 11.4313C6.92997 11.6034 6.9884 11.6943 7.13447 11.7722C7.61164 12.0351 8.08232 12.3143 8.55299 12.5837C8.61142 12.6161 8.66336 12.6876 8.76074 12.6259C8.76074 10.7237 8.76723 8.81177 8.7575 6.89984C8.75425 6.50707 8.90357 6.25388 9.2444 6.06236C10.2312 5.50729 11.2083 4.93598 12.1886 4.36792C12.6008 4.13096 13.0131 3.88751 13.4221 3.65054ZM15.3015 11.1781V11.5936C15.3015 13.3984 15.2983 15.2065 15.3048 17.0113C15.308 17.3781 15.1717 17.6281 14.8503 17.8033C14.3991 18.05 13.9577 18.313 13.513 18.5694C12.5554 19.1245 11.5945 19.6796 10.5461 20.2866C10.637 20.319 10.6824 20.3255 10.7149 20.3515C11.9192 21.2312 13.2338 21.4324 14.6134 20.8806C15.9929 20.3288 16.8824 19.2803 17.0512 17.8033C17.2557 15.9985 17.0934 14.1743 17.1258 12.3597C17.1291 12.2623 17.0836 12.2071 17.0057 12.1617C16.4539 11.8436 15.9053 11.5255 15.3015 11.1781ZM13.0066 8.72413C13.1397 8.80528 13.2306 8.85721 13.3182 8.90915C14.8893 9.81805 16.4571 10.7302 18.0347 11.6293C18.3756 11.8241 18.5216 12.0805 18.5184 12.4701C18.5086 13.973 18.5151 15.4759 18.5151 16.9788C18.5151 17.0892 18.5249 17.1963 18.5314 17.3294C18.6125 17.3002 18.6612 17.284 18.7099 17.2645C20.1219 16.6088 20.9594 15.5084 21.0925 13.9633C21.2321 12.363 20.5926 11.0775 19.2195 10.2303C17.8367 9.37658 16.4084 8.59753 15.0029 7.77952C14.8796 7.70811 14.7887 7.69837 14.6588 7.77303C14.1265 8.08465 13.5876 8.38654 13.0066 8.72413ZM5.54715 6.59147C5.40108 6.57199 5.31343 6.64016 5.22254 6.6856C3.87868 7.36078 3.09313 8.45146 2.96978 9.94464C2.84319 11.493 3.44371 12.7655 4.75836 13.5965C6.16714 14.4859 7.63761 15.2812 9.07886 16.1186C9.16325 16.1673 9.24116 16.2095 9.33854 16.1511C9.89686 15.8265 10.4552 15.5019 11.046 15.161C10.9226 15.0864 10.8382 15.0312 10.7506 14.9793C9.17948 14.0704 7.61164 13.1582 6.03406 12.2623C5.68024 12.0611 5.53741 11.7981 5.54066 11.3956C5.55364 9.80182 5.54715 8.20476 5.54715 6.59147ZM9.7378 9.47396C9.87414 9.40255 9.96503 9.35711 10.0527 9.30517C11.6075 8.40926 13.1656 7.51984 14.7108 6.6077C15.0808 6.39021 15.3957 6.38372 15.7657 6.60121C17.0674 7.37052 18.3788 8.11711 19.687 8.8702C19.7649 8.91564 19.8298 9.00004 19.9629 8.96109C20.1349 7.41597 19.6675 6.11105 18.4048 5.17619C17.0934 4.20237 15.6424 4.06928 14.1946 4.83211C12.7404 5.60142 11.3349 6.46487 9.9066 7.28612C9.82545 7.33157 9.7378 7.37052 9.7378 7.49062V9.47396ZM14.331 12.0286C14.331 11.5839 14.3212 11.2138 14.3342 10.847C14.3407 10.6782 14.2855 10.5809 14.1362 10.4997C13.487 10.1362 12.841 9.76286 12.2016 9.38307C12.0782 9.30842 11.9873 9.30842 11.8607 9.37983C11.2213 9.75962 10.5753 10.1329 9.92608 10.4965C9.77676 10.5809 9.73131 10.6782 9.73131 10.847C9.74105 11.5709 9.7443 12.298 9.73131 13.0219C9.72807 13.2199 9.79948 13.3238 9.96827 13.4114C10.2766 13.5705 10.5688 13.7555 10.8707 13.9275C11.2537 14.145 11.6367 14.5378 12.0165 14.5346C12.4126 14.5313 12.8053 14.1483 13.1949 13.9275C13.5681 13.7133 14.0583 13.5705 14.2693 13.2491C14.4868 12.9083 14.3082 12.3889 14.331 12.0286Z" fill="#B3B3C1"/>
</svg>
