<svg width="32" height="32" viewBox="0 0 32 32" fill="none" xmlns="http://www.w3.org/2000/svg">
<path d="M0 9C0 4.02944 4.02944 0 9 0H23C27.9706 0 32 4.02944 32 9V23C32 27.9706 27.9706 32 23 32H9C4.02944 32 0 27.9706 0 23V9Z" fill="#330000"/>
<path d="M24.1506 22.2882H21.2346V11.6502H24.1506V22.2882ZM24.4206 8.69822C24.4206 9.22621 24.2586 9.64621 23.9346 9.95821C23.6226 10.2702 23.2026 10.4262 22.6746 10.4262C22.1466 10.4262 21.7266 10.2702 21.4146 9.95821C21.1146 9.64621 20.9646 9.22621 20.9646 8.69822C20.9646 8.17021 21.1146 7.75021 21.4146 7.43822C21.7266 7.12621 22.1466 6.97021 22.6746 6.97021C23.2026 6.97021 23.6226 7.12621 23.9346 7.43822C24.2586 7.75021 24.4206 8.17021 24.4206 8.69822Z" fill="#FF9A02"/>
<path d="M6.162 22.288L11.454 8.24805H14.532L19.806 22.288H16.62L13.038 12.208H12.93L9.348 22.288H6.162ZM16.134 16.222L16.872 19.03H9.258L9.978 16.222H16.134Z" fill="#FF9A02"/>
</svg>
