<svg width="32" height="32" viewBox="0 0 32 32" fill="none" xmlns="http://www.w3.org/2000/svg">
<path d="M6.00817 8.62691C5.58469 8.62691 5.17855 8.79513 4.87911 9.09458C4.57966 9.39403 4.41144 9.80016 4.41144 10.2236C4.41144 11.1053 5.12654 11.8171 6.00817 11.8171H12.6563L0.702048 21.2571C-0.0979522 21.8906 -0.235095 23.0563 0.398374 23.8563C1.03184 24.6563 2.20082 24.7934 3.00082 24.16L9.63919 18.9192V18.9257C9.63919 24.6138 14.6449 29.2245 20.8196 29.2245C26.9943 29.2245 32 24.6138 32 18.9257C32 15.3175 29.9853 12.1436 26.9355 10.3053L17.6033 3.07915C16.9665 2.58936 16.0555 2.70364 15.5657 3.33711C15.4487 3.48748 15.3626 3.65947 15.3122 3.84321C15.2619 4.02695 15.2483 4.21882 15.2722 4.40783C15.2962 4.59683 15.3573 4.77924 15.4519 4.94459C15.5465 5.10995 15.6729 5.25499 15.8237 5.3714L20.0294 8.62691H6.00817Z" fill="#E87D0D"/>
<path d="M20.9633 11.8184C17.1167 11.8184 13.9951 14.6102 13.9951 18.0551C13.9951 21.5 17.1167 24.2918 20.9633 24.2918C24.8131 24.2918 27.9347 21.5 27.9347 18.0551C27.9347 14.6102 24.8131 11.8184 20.9633 11.8184Z" fill="white"/>
<path d="M20.9646 14.1387C18.558 14.1387 16.6087 15.8921 16.6087 18.0538C16.6087 20.2187 18.558 21.9721 20.9646 21.9721C23.3711 21.9721 25.3205 20.2187 25.3205 18.0538C25.3205 15.8921 23.3711 14.1387 20.9646 14.1387Z" fill="#265787"/>
</svg>
