<svg width="32" height="32" viewBox="0 0 32 32" fill="none" xmlns="http://www.w3.org/2000/svg">
<path d="M0 9C0 4.02944 4.02944 0 9 0H23C27.9706 0 32 4.02944 32 9V23C32 27.9706 27.9706 32 23 32H9C4.02944 32 0 27.9706 0 23V9Z" fill="#001E36"/>
<path d="M22.5552 22.54C21.4392 22.54 20.4732 22.318 19.6572 21.874C18.8532 21.43 18.2712 20.8299 17.9112 20.0739L20.0532 18.5979C20.3652 19.102 20.7252 19.486 21.1332 19.75C21.5532 20.014 22.0152 20.146 22.5192 20.146C22.9872 20.146 23.3412 20.074 23.5812 19.93C23.8212 19.774 23.9412 19.558 23.9412 19.2819C23.9412 19.0179 23.8032 18.796 23.5272 18.616C23.2512 18.436 22.8252 18.28 22.2492 18.148C20.9892 17.86 20.0052 17.4399 19.2972 16.8879C18.6012 16.3359 18.2532 15.6099 18.2532 14.7099C18.2532 14.0379 18.4272 13.456 18.7752 12.964C19.1352 12.472 19.6332 12.0879 20.2692 11.8119C20.9052 11.5359 21.6432 11.3979 22.4832 11.3979C23.4552 11.3979 24.3012 11.6079 25.0212 12.028C25.7412 12.436 26.2872 12.9819 26.6592 13.6659L24.5352 15.124C24.2952 14.716 24.0012 14.392 23.6532 14.1519C23.3172 13.9119 22.9392 13.792 22.5192 13.792C22.1112 13.792 21.7932 13.87 21.5652 14.026C21.3492 14.182 21.2412 14.3919 21.2412 14.6559C21.2412 14.9319 21.3852 15.16 21.6732 15.34C21.9612 15.52 22.4832 15.688 23.2392 15.844C24.4152 16.108 25.3212 16.51 25.9572 17.05C26.5932 17.59 26.9112 18.292 26.9112 19.156C26.9112 19.816 26.7252 20.404 26.3532 20.92C25.9812 21.424 25.4652 21.82 24.8052 22.108C24.1452 22.396 23.3952 22.54 22.5552 22.54Z" fill="#31A8FF"/>
<path d="M7.57399 17.842V15.106H11.336C12.152 15.106 12.776 14.932 13.208 14.584C13.652 14.224 13.874 13.714 13.874 13.054C13.874 12.382 13.652 11.866 13.208 11.506C12.764 11.146 12.14 10.966 11.336 10.966H9.21199V22.288H6.20599V8.24805H11.768C13.4 8.24805 14.672 8.67405 15.584 9.52605C16.496 10.366 16.952 11.542 16.952 13.054C16.952 14.554 16.508 15.73 15.62 16.582C14.744 17.422 13.52 17.842 11.948 17.842H7.57399Z" fill="#31A8FF"/>
</svg>
